#!OML:ASF H:\Terrain\Patient Classification 1\Takeo\Monday\TakeoMonday.ASF
:FULLY-SPECIFIED
:DEGREES
2563
root 10.0931 17.8742 0.245328 -3.1396 -9.71183 -0.759906
lowerback 2.93732 0.15948 0.40439
upperback 0.864031 0.227788 0.459619
thorax -0.761335 0.113104 0.235834
lowerneck -10.5736 -0.88385 -2.32501
upperneck 11.0051 -0.95681 1.01543
head 5.05883 -0.498818 0.623504
rclavicle -1.27531e-014 4.82053e-015
rhumerus -35.4735 -2.95268 -83.824
rradius 25.3639
rwrist -14.1051
rhand -23.0554 6.35369
rfingers 7.12502
rthumb 3.38959 -23.5991
lclavicle -1.27531e-014 4.82053e-015
lhumerus -37.2626 14.7506 84.8199
lradius 28.489
lwrist 29.3757
lhand -23.7151 21.8204
lfingers 7.12502
lthumb 2.75247 51.7824
rfemur 9.06205 4.04358 19.7987
rtibia 5.63351
rfoot -8.9642 -16.3722
rtoes -0.158509
lfemur 4.43376 -1.72073 -20.962
ltibia 17.1519
lfoot -16.5821 21.2327
ltoes -0.165144
2564
root 10.094 17.8747 0.248907 -3.13777 -9.45992 -0.854327
lowerback 2.95222 0.0787148 0.400222
upperback 0.903565 0.120022 0.479765
thorax -0.729108 0.0592622 0.262618
lowerneck -10.7386 -0.88676 -2.34354
upperneck 10.9316 -0.967666 1.12744
head 5.06439 -0.496529 0.660075
rclavicle -1.39101e-015 8.64713e-015
rhumerus -35.4381 -4.01455 -83.2766
rradius 24.4752
rwrist -14.5478
rhand -23.6378 6.49715
rfingers 7.12502
rthumb 2.82711 -23.4639
lclavicle -1.39101e-015 8.64713e-015
lhumerus -37.1924 14.8431 84.8816
lradius 28.6689
lwrist 29.12
lhand -23.6579 21.5755
lfingers 7.12502
lthumb 2.80774 51.5367
rfemur 9.55957 3.76638 19.898
rtibia 4.74297
rfoot -8.5555 -16.3878
rtoes 0.187065
lfemur 4.35281 -1.73568 -20.8372
ltibia 17.3527
lfoot -16.3838 21.0989
ltoes -0.373545
2565
root 10.0955 17.8789 0.253729 -3.06531 -9.2284 -0.94574
lowerback 2.9898 -0.00554704 0.430829
upperback 0.817958 0.00953835 0.477862
thorax -0.837605 0.00392405 0.247432
lowerneck -10.8131 -0.829529 -2.0426
upperneck 10.9133 -0.904861 0.877971
head 5.06751 -0.469776 0.537927
rclavicle 2.33106e-015 1.14301e-015
rhumerus -36.01 -4.14259 -83.1295
rradius 24.2892
rwrist -15.9073
rhand -24.2339 7.36761
rfingers 7.12502
rthumb 2.25144 -22.6003
lclavicle 2.33106e-015 1.14301e-015
lhumerus -37.1746 14.2984 85.0928
lradius 28.7874
lwrist 29.4953
lhand -23.9126 21.299
lfingers 7.12502
lthumb 2.56172 51.2633
rfemur 9.67825 3.512 19.9728
rtibia 4.45295
rfoot -8.42987 -16.3648
rtoes -0.781131
lfemur 4.28334 -1.89759 -20.7472
ltibia 17.3579
lfoot -16.2954 21.0283
ltoes -0.384246
2566
root 10.101 17.8837 0.257882 -3.0441 -9.1061 -1.11788
lowerback 3.04338 -0.0343904 0.627904
upperback 0.784686 -0.0218634 0.507456
thorax -0.901676 -0.0121369 0.168471
lowerneck -10.8755 -0.830421 -1.86705
upperneck 10.8685 -0.913154 0.72462
head 5.06266 -0.476562 0.460836
rclavicle -3.62116e-014 6.60959e-015
rhumerus -36.1881 -5.76115 -82.2354
rradius 23.4184
rwrist -15.3409
rhand -24.3407 7.65985
rfingers 7.12502
rthumb 2.14834 -22.3091
lclavicle -3.62116e-014 6.60959e-015
lhumerus -37.3092 13.9647 85.2615
lradius 29.2273
lwrist 29.748
lhand -24.0678 20.9428
lfingers 7.12502
lthumb 2.41191 50.9089
rfemur 9.55249 3.3643 20.1239
rtibia 4.78247
rfoot -8.60031 -16.3244
rtoes -1.9936
lfemur 4.39302 -2.07424 -20.5908
ltibia 17.1815
lfoot -16.4887 20.9422
ltoes 0.531176
2567
root 10.1063 17.8858 0.264462 -3.12829 -9.01474 -0.695083
lowerback 2.93577 0.000414746 0.204951
upperback 0.895159 0.00933687 0.40518
thorax -0.728356 0.00405558 0.299611
lowerneck -10.9837 -0.898844 -1.84436
upperneck 10.6307 -0.998656 0.667071
head 5.00764 -0.520227 0.432658
rclavicle 1.00819e-015 1.44119e-015
rhumerus -35.9582 -8.43685 -80.8334
rradius 22.2276
rwrist -13.3011
rhand -24.332 7.52599
rfingers 7.12502
rthumb 2.15675 -22.4429
lclavicle 1.00819e-015 1.44119e-015
lhumerus -37.1792 13.943 85.3964
lradius 29.5242
lwrist 29.6643
lhand -24.0221 20.8117
lfingers 7.12502
lthumb 2.45604 50.7774
rfemur 9.46357 3.29054 19.6113
rtibia 5.11261
rfoot -8.69654 -16.3159
rtoes -1.70442
lfemur 4.54791 -2.1219 -21.0818
ltibia 16.9545
lfoot -16.542 20.8971
ltoes 0.92064
2568
root 10.1079 17.8903 0.270928 -3.11019 -8.9815 -0.385512
lowerback 2.73101 0.0614499 -0.139744
upperback 1.06598 0.0793397 0.301814
thorax -0.439492 0.038541 0.384833
lowerneck -11.2378 -0.979056 -2.06036
upperneck 10.3095 -1.10836 1.01459
head 4.95486 -0.55762 0.566932
rclavicle -8.84485e-015 -4.52235e-015
rhumerus -35.8669 -10.0518 -80.0629
rradius 21.7048
rwrist -12.2807
rhand -24.7755 7.81716
rfingers 7.12502
rthumb 1.72841 -22.1556
lclavicle -8.84485e-015 -4.52235e-015
lhumerus -36.7085 13.4279 85.7882
lradius 29.7583
lwrist 30.6992
lhand -24.5689 21.3837
lfingers 7.12502
lthumb 1.92795 51.3548
rfemur 9.08109 3.26313 19.2401
rtibia 5.77909
rfoot -8.98782 -16.3195
rtoes -1.08424
lfemur 4.61562 -1.98833 -21.4021
ltibia 16.6257
lfoot -16.1524 20.8716
ltoes 0.00182682
2569
root 10.1082 17.893 0.273358 -3.03387 -8.94614 -0.608881
lowerback 2.66177 0.0664256 0.0649742
upperback 1.19322 0.0906473 0.324256
thorax -0.270317 0.0443384 0.292874
lowerneck -11.548 -0.987586 -2.23287
upperneck 10.108 -1.13313 1.41802
head 4.94755 -0.547967 0.717548
rclavicle 2.01129e-014 7.57867e-016
rhumerus -36.0383 -10.6068 -79.8363
rradius 21.7413
rwrist -12.3635
rhand -24.9867 8.14208
rfingers 7.12502
rthumb 1.52446 -21.8322
lclavicle 2.01129e-014 7.57867e-016
lhumerus -36.1687 12.6 86.2656
lradius 29.8036
lwrist 32.2414
lhand -25.3538 21.8819
lfingers 7.12502
lthumb 1.16985 51.8585
rfemur 8.57398 3.19042 19.4791
rtibia 6.70638
rfoot -9.40547 -16.2925
rtoes -1.19826
lfemur 4.7151 -1.7987 -21.1049
ltibia 16.2553
lfoot -15.8889 20.6856
ltoes -1.0021
